HIERARCHY
ROOT hip
{
  OFFSET -0.102081 86.0187 0.0627041
  CHANNELS 6 Xposition Yposition Zposition Zrotation Xrotation Yrotation
  JOINT abdomen
  {
    OFFSET 0.00013566 7.24102 1.12653e-05
    CHANNELS 6 Xposition Yposition Zposition Zrotation Xrotation Yrotation
    JOINT chest
    {
      OFFSET 0.00112009 16.5522 2.09808e-05
      CHANNELS 6 Xposition Yposition Zposition Zrotation Xrotation Yrotation
      JOINT neck
      {
        OFFSET -9.77516e-05 34.2141 -0.000310898
        CHANNELS 6 Xposition Yposition Zposition Zrotation Xrotation Yrotation
        JOINT head
        {
          OFFSET 0 6.29235 0
          CHANNELS 6 Xposition Yposition Zposition Zrotation Xrotation Yrotation
          End Site
          {
            OFFSET 0 0 0
          }
        }
      }
      JOINT lCollar
      {
        OFFSET 4.06393 26.6115 -1.12345
        CHANNELS 6 Xposition Yposition Zposition Zrotation Xrotation Yrotation
        JOINT lShldr
        {
          OFFSET 14.1772 -1.52588e-05 0
          CHANNELS 6 Xposition Yposition Zposition Zrotation Xrotation Yrotation
          JOINT lForeArm
          {
            OFFSET 26.1234 -1.14441e-05 -1.52588e-05
            CHANNELS 6 Xposition Yposition Zposition Zrotation Xrotation Yrotation
            JOINT lHand
            {
              OFFSET 27.7188 0 0
              CHANNELS 6 Xposition Yposition Zposition Zrotation Xrotation Yrotation
              JOINT lThumb1
              {
                OFFSET 2.29793 -0.468453 1.83133
                CHANNELS 6 Xposition Yposition Zposition Zrotation Xrotation Yrotation
                JOINT lThumb2
                {
                  OFFSET 5.29528 0 0
                  CHANNELS 6 Xposition Yposition Zposition Zrotation Xrotation Yrotation
                  JOINT lThumb3
                  {
                    OFFSET 3.01811 0 0
                    CHANNELS 6 Xposition Yposition Zposition Zrotation Xrotation Yrotation
                    End Site
                    {
                      OFFSET 0 0 0
                    }
                  }
                }
              }
              JOINT lIndex1
              {
                OFFSET 9.37932 0.299065 2.59235
                CHANNELS 6 Xposition Yposition Zposition Zrotation Xrotation Yrotation
                JOINT lIndex2
                {
                  OFFSET 4.34608 0 0
                  CHANNELS 6 Xposition Yposition Zposition Zrotation Xrotation Yrotation
                  JOINT lIndex3
                  {
                    OFFSET 2.16661 0 0
                    CHANNELS 6 Xposition Yposition Zposition Zrotation Xrotation Yrotation
                    End Site
                    {
                      OFFSET 0 0 0
                    }
                  }
                }
              }
              JOINT lMid1
              {
                OFFSET 9.47694 0.837639 0.29467
                CHANNELS 6 Xposition Yposition Zposition Zrotation Xrotation Yrotation
                JOINT lMid2
                {
                  OFFSET 4.77206 0 0
                  CHANNELS 6 Xposition Yposition Zposition Zrotation Xrotation Yrotation
                  JOINT lMid3
                  {
                    OFFSET 2.87216 0 0
                    CHANNELS 6 Xposition Yposition Zposition Zrotation Xrotation Yrotation
                    End Site
                    {
                      OFFSET 0 0 0
                    }
                  }
                }
              }
              JOINT lRing1
              {
                OFFSET 8.65864 1.01763 -1.70161
                CHANNELS 6 Xposition Yposition Zposition Zrotation Xrotation Yrotation
                JOINT lRing2
                {
                  OFFSET 4.54612 0 0
                  CHANNELS 6 Xposition Yposition Zposition Zrotation Xrotation Yrotation
                  JOINT lRing3
                  {
                    OFFSET 2.50604 0 0
                    CHANNELS 6 Xposition Yposition Zposition Zrotation Xrotation Yrotation
                    End Site
                    {
                      OFFSET 0 0 0
                    }
                  }
                }
              }
              JOINT lPinky1
              {
                OFFSET 7.69006 0.661797 -3.90961
                CHANNELS 6 Xposition Yposition Zposition Zrotation Xrotation Yrotation
                JOINT lPinky2
                {
                  OFFSET 3.21194 0 0
                  CHANNELS 6 Xposition Yposition Zposition Zrotation Xrotation Yrotation
                  JOINT lPinky3
                  {
                    OFFSET 1.92396 0 0
                    CHANNELS 6 Xposition Yposition Zposition Zrotation Xrotation Yrotation
                    End Site
                    {
                      OFFSET 0 0 0
                    }
                  }
                }
              }
            }
          }
        }
      }
      JOINT rCollar
      {
        OFFSET -4.06772 26.6109 -1.12342
        CHANNELS 6 Xposition Yposition Zposition Zrotation Xrotation Yrotation
        JOINT rShldr
        {
          OFFSET -14.1772 -1.52588e-05 0
          CHANNELS 6 Xposition Yposition Zposition Zrotation Xrotation Yrotation
          JOINT rForeArm
          {
            OFFSET -26.1234 0 0
            CHANNELS 6 Xposition Yposition Zposition Zrotation Xrotation Yrotation
            JOINT rHand
            {
              OFFSET -27.7188 0 0
              CHANNELS 6 Xposition Yposition Zposition Zrotation Xrotation Yrotation
              JOINT rThumb1
              {
                OFFSET -2.29792 -0.468455 1.83133
                CHANNELS 6 Xposition Yposition Zposition Zrotation Xrotation Yrotation
                JOINT rThumb2
                {
                  OFFSET -5.29528 0 0
                  CHANNELS 6 Xposition Yposition Zposition Zrotation Xrotation Yrotation
                  JOINT rThumb3
                  {
                    OFFSET -3.01811 0 0
                    CHANNELS 6 Xposition Yposition Zposition Zrotation Xrotation Yrotation
                    End Site
                    {
                      OFFSET 0 0 0
                    }
                  }
                }
              }
              JOINT rIndex1
              {
                OFFSET -9.37932 0.299061 2.59235
                CHANNELS 6 Xposition Yposition Zposition Zrotation Xrotation Yrotation
                JOINT rIndex2
                {
                  OFFSET -4.3461 -1.52588e-05 0
                  CHANNELS 6 Xposition Yposition Zposition Zrotation Xrotation Yrotation
                  JOINT rIndex3
                  {
                    OFFSET -2.1666 0 0
                    CHANNELS 6 Xposition Yposition Zposition Zrotation Xrotation Yrotation
                    End Site
                    {
                      OFFSET 0 0 0
                    }
                  }
                }
              }
              JOINT rMid1
              {
                OFFSET -9.47695 0.837639 0.294662
                CHANNELS 6 Xposition Yposition Zposition Zrotation Xrotation Yrotation
                JOINT rMid2
                {
                  OFFSET -4.77205 0 0
                  CHANNELS 6 Xposition Yposition Zposition Zrotation Xrotation Yrotation
                  JOINT rMid3
                  {
                    OFFSET -2.87216 -3.05176e-05 0
                    CHANNELS 6 Xposition Yposition Zposition Zrotation Xrotation Yrotation
                    End Site
                    {
                      OFFSET 0 0 0
                    }
                  }
                }
              }
              JOINT rRing1
              {
                OFFSET -8.65865 1.01764 -1.70161
                CHANNELS 6 Xposition Yposition Zposition Zrotation Xrotation Yrotation
                JOINT rRing2
                {
                  OFFSET -4.54611 0 0
                  CHANNELS 6 Xposition Yposition Zposition Zrotation Xrotation Yrotation
                  JOINT rRing3
                  {
                    OFFSET -2.50603 0 0
                    CHANNELS 6 Xposition Yposition Zposition Zrotation Xrotation Yrotation
                    End Site
                    {
                      OFFSET 0 0 0
                    }
                  }
                }
              }
              JOINT rPinky1
              {
                OFFSET -7.69005 0.661799 -3.90961
                CHANNELS 6 Xposition Yposition Zposition Zrotation Xrotation Yrotation
                JOINT rPinky2
                {
                  OFFSET -3.21192 0 0
                  CHANNELS 6 Xposition Yposition Zposition Zrotation Xrotation Yrotation
                  JOINT rPinky3
                  {
                    OFFSET -1.92396 0 0
                    CHANNELS 6 Xposition Yposition Zposition Zrotation Xrotation Yrotation
                    End Site
                    {
                      OFFSET 0 0 0
                    }
                  }
                }
              }
            }
          }
        }
      }
    }
  }
  JOINT lThigh
  {
    OFFSET 8.73787 -0.00289154 0.000543416
    CHANNELS 6 Xposition Yposition Zposition Zrotation Xrotation Yrotation
    JOINT lShin
    {
      OFFSET 0 -46.6676 0
      CHANNELS 6 Xposition Yposition Zposition Zrotation Xrotation Yrotation
      JOINT lFoot
      {
        OFFSET 0 -40.1476 0
        CHANNELS 6 Xposition Yposition Zposition Zrotation Xrotation Yrotation
        JOINT lToes
        {
          OFFSET 0 -8.8846 14.2294
          CHANNELS 6 Xposition Yposition Zposition Zrotation Xrotation Yrotation
          End Site
          {
            OFFSET 0 0 0
          }
        }
      }
    }
  }
  JOINT rThigh
  {
    OFFSET -8.73786 0.00291443 -0.000538051
    CHANNELS 6 Xposition Yposition Zposition Zrotation Xrotation Yrotation
    JOINT rShin
    {
      OFFSET 0 -46.6676 0
      CHANNELS 6 Xposition Yposition Zposition Zrotation Xrotation Yrotation
      JOINT rFoot
      {
        OFFSET 0 -40.1476 0
        CHANNELS 6 Xposition Yposition Zposition Zrotation Xrotation Yrotation
        JOINT rToes
        {
          OFFSET 0 -8.8846 14.2294
          CHANNELS 6 Xposition Yposition Zposition Zrotation Xrotation Yrotation
          End Site
          {
            OFFSET 0 0 0
          }
        }
      }
    }
  }
}
MOTION
Frames:	4
Frame Time:	0.0333333
-0.102081 86.0187 0.0627041 -1.80892 1.09182 -36.3602 0.00013566 7.24102 1.12653e-05 -0.0518177 3.21759 -0.571326 0.00112009 16.5522 2.09808e-05 -0.632533 12.2129 -2.67705 -9.77516e-05 34.2141 -0.000310898 -0.596406 21.1253 1.14652 -9.53675e-07 6.29235 0 -10.0519 -21.7178 41.2852 4.06393 26.6115 -1.12345 -6.6538 -5.30492 6.0856 14.1772 -1.52588e-05 0 -54.7876 33.1818 -70.0599 26.1234 -1.14441e-05 -1.52588e-05 0.000105164 -4.42573e-05 -94.2651 27.7188 -7.6294e-06 7.10543e-15 -2.85494 -38.8104 -9.65801 2.29793 -0.468453 1.83133 60.5591 59.8115 -94.8729 5.29528 -2.86102e-06 1.42109e-14 -31.6287 1.78783 13.5283 3.01811 7.10543e-15 -7.6294e-06 -9.29881 4.86507 11.9855 9.37932 0.299065 2.59235 -9.83703 2.83869 -2.04582 4.34608 -7.6294e-06 -3.8147e-06 -7.26376 5.11663 12.1127 2.16661 3.8147e-06 -7.6294e-06 -19.6181 -0.585638 3.81475 9.47694 0.837639 0.29467 -7.80701 -4.49978 2.59327 4.77206 0 -7.62939e-06 -25.2631 1.27584 15.7985 2.87216 0 7.62939e-06 -42.8503 -5.38857 11.9082 8.65864 1.01763 -1.70161 -10.3118 -9.43779 14.9148 4.54612 -7.6294e-06 0 -15.9269 1.27303 7.56641 2.50604 -7.10543e-15 0 -24.2426 -1.28054 4.61475 7.69006 0.661797 -3.90961 -12.7396 -8.19472 22.874 3.21194 1.90735e-06 7.6294e-06 -51.1497 -7.95633 12.2935 1.92396 -7.6294e-06 0 -72.2038 -16.6404 20.9757 -4.06772 26.6109 -1.12342 7.16919 -5.24866 -5.1694 -14.1772 -1.52588e-05 3.8147e-06 53.9434 -2.33066 57.2995 -26.1234 -7.6294e-06 -7.62939e-06 -1.52588e-05 2.31035e-15 109.224 -27.7188 7.6294e-06 -7.62939e-06 -26.7203 8.60326 34.0483 -2.29792 -0.468455 1.83133 -60.559 59.8116 94.8729 -5.29528 -7.6294e-06 -7.62939e-06 31.6286 1.78785 -13.5283 -3.01811 1.42109e-14 7.10543e-15 9.29881 4.86514 -11.9855 -9.37932 0.299061 2.59235 -22.4207 -2.27895 5.14272 -4.3461 -1.52588e-05 -1.42109e-14 82.9788 -11.3023 -13.0739 -2.1666 0 0 32.4202 -1.98995 -6.38553 -9.47695 0.837639 0.294662 -12.53 6.19989 -9.98236 -4.77205 -1.90735e-06 0 87.2741 -15.4094 -16.2418 -2.87216 -3.05176e-05 -1.77636e-15 44.7844 -4.46784 -12.7933 -8.65865 1.01764 -1.70161 26.7006 -10.5912 -18.819 -4.54611 7.6294e-06 3.55271e-15 80.3111 -7.53548 -8.92563 -2.50603 -2.84217e-14 -1.90735e-06 47.9318 -2.94348 -7.77339 -7.69005 0.661799 -3.90961 38.3555 -32.618 -10.4104 -3.21192 0 0 38.6771 -4.70147 -13.3432 -1.92396 2.84217e-14 3.55271e-15 39.9369 -4.93892 -15.3353 8.73787 -0.00289154 0.000543416 33.0937 -23.8363 44.3074 -5.72205e-06 -46.6676 0 8.21372e-06 50.1256 9.32203e-06 -1.90735e-06 -40.1476 -9.53674e-06 -6.14885 -10.8113 10.5737 1.90735e-06 -8.8846 14.2294 0.000154426 2.11309e-05 -1.65185e-05 -8.73786 0.00291443 -0.000538051 -17.9412 -15.5984 -16.4906 -3.8147e-06 -46.6676 9.53674e-06 2.75692e-05 47.9701 -3.25178e-05 -7.6294e-06 -40.1476 -3.33786e-06 14.8145 -27.5312 1.15644 7.6294e-06 -8.8846 14.2294 -2.12376e-05 8.00413e-06 6.06279e-05 
-0.128768 86.059 0.0723081 -1.77397 1.0928 -36.3518 0.00014019 7.24101 1.12355e-05 -0.0593176 3.20737 -0.593591 0.00113678 16.5521 1.09673e-05 -0.598113 12.0194 -2.72277 -9.63211e-05 34.2141 -0.000291824 -0.596129 21.1636 1.15073 -4.76837e-07 6.29236 -7.62939e-06 -10.1894 -21.5818 41.3617 4.06393 26.6115 -1.12343 -6.47167 -5.2959 6.19277 14.1772 0 -3.55271e-15 -54.7129 33.142 -70.2447 26.1234 -1.52588e-05 -1.42109e-14 0.000105242 -4.2073e-05 -94.2737 27.7188 -1.14441e-05 1.52588e-05 -2.69109 -39.1348 -9.60215 2.29792 -0.468454 1.83133 60.559 59.8115 -94.8729 5.29528 -1.90735e-06 0 -31.6287 1.78785 13.5283 3.0181 -7.62939e-06 0 -9.29882 4.86508 11.9855 9.37931 0.299063 2.59236 -9.83702 2.83868 -2.04582 4.34608 3.8147e-06 0 -7.26378 5.11664 12.1127 2.1666 0 1.42109e-14 -19.6182 -0.585646 3.81472 9.47693 0.837643 0.29467 -7.82563 -4.08984 2.59187 4.77205 3.8147e-06 -7.62939e-06 -25.2631 1.27582 15.7985 2.87218 -7.6294e-06 7.62939e-06 -42.8503 -5.38856 11.9082 8.65865 1.01763 -1.70161 -10.3118 -9.4378 14.9148 4.5461 -5.72205e-06 0 -15.9269 1.27303 7.5664 2.50603 7.6294e-06 0 -24.2425 -1.28054 4.61474 7.69005 0.661793 -3.9096 -12.7396 -8.19473 22.874 3.21191 7.6294e-06 -1.52588e-05 -51.1496 -7.95635 12.2935 1.92396 -7.6294e-06 7.6294e-06 -72.2038 -16.6404 20.9758 -4.06772 26.6109 -1.12341 7.01609 -5.24505 -5.26613 -14.1772 1.52588e-05 1.90735e-06 53.9564 -2.15705 57.4956 -26.1234 -7.62939e-06 -7.6294e-06 -8.53372e-07 5.03136e-06 109.253 -27.7188 -2.84217e-14 -5.72205e-06 -26.7313 8.49912 33.8844 -2.29793 -0.468456 1.83134 -60.559 59.8116 94.8729 -5.29527 -1.42109e-14 -7.62939e-06 31.6286 1.78783 -13.5284 -3.01811 0 -1.42109e-14 9.29882 4.86513 -11.9855 -9.37931 0.299057 2.59236 -22.4207 -2.27895 5.14271 -4.34609 -1.14441e-05 0 82.9788 -11.3023 -13.074 -2.16661 0 7.10543e-15 32.4202 -1.98996 -6.38553 -9.47695 0.837637 0.294678 -12.53 6.19989 -9.98237 -4.77203 1.90735e-06 7.62939e-06 87.2741 -15.4094 -16.2418 -2.87217 2.84217e-14 4.44089e-15 44.7845 -4.46781 -12.7933 -8.65865 1.01764 -1.70161 26.7006 -10.5912 -18.819 -4.54611 -7.6294e-06 -3.55271e-15 80.3111 -7.53551 -8.92565 -2.50602 2.84217e-14 3.55271e-15 47.9318 -2.94346 -7.77337 -7.69005 0.661799 -3.9096 38.3555 -32.618 -10.4104 -3.21192 1.52588e-05 1.77636e-15 38.6771 -4.70147 -13.3431 -1.92397 -3.05176e-05 -3.8147e-06 39.9369 -4.93893 -15.3353 8.73787 -0.0029068 0.000543267 33.0522 -23.8159 44.3543 -7.62939e-06 -46.6676 -7.10543e-15 1.98632e-08 49.9707 1.72566e-05 5.72204e-06 -40.1476 -1.33514e-05 -6.14089 -10.7516 10.5516 -9.53674e-07 -8.8846 14.2294 0.000156347 4.18349e-05 -1.84762e-05 -8.73786 0.00289917 -0.000537187 -17.9316 -15.6118 -16.5339 -1.14441e-05 -46.6676 5.72205e-06 1.72596e-05 47.8293 -2.09837e-05 -1.90735e-05 -40.1476 -1.14441e-05 14.8283 -27.4413 1.1578 3.8147e-06 -8.88459 14.2294 -2.95619e-05 -5.65625e-06 5.26005e-05 
-0.156805 86.1023 0.0828904 -1.736 1.09463 -36.343 0.000145912 7.241 1.00136e-05 -0.0672047 3.19835 -0.616512 0.00115299 16.5521 3.8147e-06 -0.562088 11.82 -2.7685 -9.58443e-05 34.2141 -0.000301361 -0.595783 21.202 1.15496 4.76837e-07 6.29236 0 -10.3298 -21.4402 41.4392 4.06393 26.6115 -1.12344 -6.28909 -5.28649 6.30255 14.1772 2.84217e-14 1.90735e-06 -54.63 33.105 -70.4347 26.1234 -7.62939e-06 1.42109e-14 0.000166567 -3.42026e-05 -94.285 27.7188 -1.52588e-05 -1.14441e-05 -2.52059 -39.467 -9.53834 2.29793 -0.468452 1.83134 60.559 59.8115 -94.8729 5.29526 -5.72204e-06 1.42109e-14 -31.6287 1.78786 13.5283 3.01811 0 -7.10543e-15 -9.29879 4.86505 11.9855 9.37932 0.299061 2.59237 -9.83703 2.83868 -2.04581 4.3461 0 3.8147e-06 -7.26377 5.11663 12.1127 2.16661 0 -1.42109e-14 -19.6181 -0.585651 3.81474 9.47695 0.837642 0.294674 -7.84416 -3.68132 2.59062 4.77206 3.55271e-15 0 -25.2631 1.27582 15.7985 2.87216 -7.62939e-06 7.6294e-06 -42.8503 -5.38856 11.9082 8.65866 1.01763 -1.70161 -10.3118 -9.43779 14.9148 4.5461 -7.62939e-06 0 -15.9268 1.27303 7.5664 2.50604 3.8147e-06 0 -24.2425 -1.28054 4.61474 7.69007 0.661792 -3.9096 -12.7396 -8.19471 22.874 3.21193 7.62939e-06 0 -51.1497 -7.95634 12.2934 1.92397 -7.62939e-06 0 -72.2038 -16.6404 20.9758 -4.06772 26.6109 -1.12342 6.85892 -5.24015 -5.35922 -14.1772 1.52588e-05 0 53.9802 -1.98902 57.6912 -26.1234 -1.42108e-14 0 -3.22296e-05 1.00779e-05 109.283 -27.7188 7.62939e-06 3.8147e-06 -26.7323 8.39368 33.7185 -2.29791 -0.468456 1.83133 -60.559 59.8116 94.8729 -5.29527 -1.42109e-14 1.42109e-14 31.6286 1.78784 -13.5283 -3.01811 0 -7.6294e-06 9.29881 4.86512 -11.9855 -9.3793 0.299053 2.59236 -22.4207 -2.27894 5.14272 -4.3461 -1.33514e-05 -7.6294e-06 82.9789 -11.3023 -13.0739 -2.1666 2.84217e-14 0 32.4201 -1.98996 -6.38552 -9.47691 0.837635 0.294678 -12.53 6.19989 -9.98237 -4.77206 -9.53674e-07 -3.8147e-06 87.2741 -15.4094 -16.2418 -2.87217 1.52588e-05 3.8147e-06 44.7845 -4.46783 -12.7933 -8.65864 1.01763 -1.70161 26.7006 -10.5912 -18.8191 -4.54611 0 -3.8147e-06 80.3111 -7.53548 -8.92565 -2.50603 0 -3.8147e-06 47.9318 -2.94346 -7.77336 -7.69004 0.661798 -3.90959 38.3555 -32.618 -10.4105 -3.21192 0 3.8147e-06 38.6771 -4.70147 -13.3432 -1.92397 2.84217e-14 7.10543e-15 39.9369 -4.93891 -15.3353 8.73786 -0.00291443 0.000543147 33.0116 -23.7962 44.4035 -1.90735e-06 -46.6676 0 6.8782e-06 49.8154 2.11706e-05 0 -40.1476 0 -6.1325 -10.6917 10.5288 3.8147e-06 -8.8846 14.2294 0.000148877 2.86014e-05 -1.50711e-05 -8.73786 0.00291443 -0.000537127 -17.9209 -15.6313 -16.5801 1.90735e-06 -46.6676 1.14441e-05 1.70128e-05 47.6844 -1.8389e-05 5.72205e-06 -40.1476 -7.62939e-06 14.8439 -27.3457 1.15923 1.90735e-06 -8.88459 14.2294 -3.08426e-05 6.83019e-06 4.6484e-05 
-0.186065 86.1485 0.0943591 -1.69536 1.09722 -36.3339 0.000151396 7.24101 9.26852e-06 -0.0753708 3.19022 -0.639894 0.00117111 16.552 -7.6294e-06 -0.524932 11.6162 -2.81422 -9.25064e-05 34.2141 -0.000299454 -0.595414 21.2405 1.15926 9.53674e-07 6.29236 -1.42109e-14 -10.4725 -21.2944 41.5176 4.06394 26.6115 -1.12343 -6.10624 -5.27656 6.4139 14.1772 -2.84217e-14 3.8147e-06 -54.5427 33.0699 -70.6273 26.1234 -3.8147e-06 -1.42109e-14 0.00013557 -4.68824e-05 -94.2977 27.7188 -2.28882e-05 1.52588e-05 -2.34557 -39.8036 -9.46912 2.29791 -0.468452 1.83133 60.559 59.8115 -94.8729 5.29525 -9.53674e-07 -7.6294e-06 -31.6287 1.78784 13.5283 3.01812 -1.42109e-14 -3.8147e-06 -9.2988 4.86508 11.9855 9.37928 0.299063 2.59235 -9.83702 2.83868 -2.04581 4.34608 -3.8147e-06 3.8147e-06 -7.26378 5.11664 12.1127 2.1666 7.6294e-06 1.42109e-14 -19.6181 -0.585638 3.81474 9.47692 0.837641 0.29467 -7.86262 -3.27369 2.5895 4.77205 -3.55271e-15 0 -25.2631 1.27583 15.7985 2.87217 -7.6294e-06 7.6294e-06 -42.8503 -5.38856 11.9082 8.65863 1.01764 -1.70161 -10.3118 -9.4378 14.9148 4.54611 -3.8147e-06 -7.6294e-06 -15.9268 1.27301 7.56639 2.50603 3.8147e-06 1.42109e-14 -24.2425 -1.28052 4.61476 7.69004 0.661799 -3.9096 -12.7396 -8.19472 22.874 3.21193 1.33514e-05 7.6294e-06 -51.1497 -7.95633 12.2934 1.92397 0 1.42109e-14 -72.2038 -16.6404 20.9758 -4.06771 26.6109 -1.12341 6.70075 -5.23453 -5.45141 -14.1772 1.52588e-05 2.86102e-06 54.0059 -1.82107 57.8855 -26.1234 -7.62939e-06 1.42109e-14 -1.61175e-05 5.04664e-06 109.314 -27.7188 7.62939e-06 -3.8147e-06 -26.731 8.28793 33.5521 -2.29792 -0.468456 1.83132 -60.559 59.8116 94.8729 -5.29528 -7.62939e-06 -1.52588e-05 31.6286 1.78783 -13.5284 -3.01811 0 -3.8147e-06 9.29881 4.86513 -11.9855 -9.37932 0.299055 2.59235 -22.4207 -2.27893 5.14271 -4.34608 -9.53674e-06 -7.62939e-06 82.9788 -11.3023 -13.0739 -2.1666 0 -7.10543e-15 32.4202 -1.98995 -6.38552 -9.47695 0.837639 0.29467 -12.53 6.19988 -9.98236 -4.77205 -1.90735e-06 0 87.2741 -15.4094 -16.2418 -2.87216 0 -1.90735e-06 44.7845 -4.46781 -12.7933 -8.65864 1.01763 -1.70161 26.7006 -10.5912 -18.8191 -4.54611 -7.6294e-06 7.6294e-06 80.3111 -7.53549 -8.92565 -2.50602 0 3.8147e-06 47.9318 -2.94346 -7.77337 -7.69005 0.661797 -3.90961 38.3555 -32.618 -10.4104 -3.21192 -1.52588e-05 -7.6294e-06 38.6771 -4.70146 -13.3432 -1.92396 1.52588e-05 7.62939e-06 39.9369 -4.93893 -15.3353 8.73786 -0.00289917 0.000542641 32.9718 -23.777 44.4545 -3.8147e-06 -46.6676 3.8147e-06 1.06372e-05 49.6597 1.51676e-05 -5.72204e-06 -40.1476 -1.14441e-05 -6.12384 -10.6317 10.5055 9.53674e-07 -8.88459 14.2294 0.000160189 3.07358e-05 -2.80728e-05 -8.73786 0.00291443 -0.000537157 -17.9094 -15.6546 -16.628 1.14441e-05 -46.6676 -3.8147e-06 3.64297e-05 47.537 -2.27635e-05 -1.33514e-05 -40.1476 4.76837e-07 14.8605 -27.2467 1.16068 3.8147e-06 -8.88459 14.2294 -3.05224e-05 -8.53774e-06 4.48031e-05 
